<mxfile host="app.diagrams.net" modified="2024-03-09T01:06:13.879Z" agent="Mozilla/5.0 (Macintosh; Intel Mac OS X 10_15_7) AppleWebKit/537.36 (KHTML, like Gecko) Chrome/120.0.0.0 Safari/537.36" version="24.0.3" etag="EjFRBcQKmSq0MZbeMauR" type="github">
  <diagram name="Page-1" id="vXKkPyih3UfHTyLI20uD">
    <mxGraphModel>
      <root>
        <mxCell id="0" />
        <mxCell id="1" parent="0" />
      </root>
    </mxGraphModel>
  </diagram>
</mxfile>
